<?xml version="1.0" standalone="no"?>
<!DOCTYPE svg PUBLIC "-//W3C//DTD SVG 20010904//EN"
 "http://www.w3.org/TR/2001/REC-SVG-20010904/DTD/svg10.dtd">
<svg version="1.0" xmlns="http://www.w3.org/2000/svg"
 width="85.000000pt" height="28.000000pt" viewBox="0 0 85.000000 28.000000"
 preserveAspectRatio="xMidYMid meet">

<g transform="translate(0.000000,28.000000) scale(0.100000,-0.100000)"
fill="#000000" stroke="none">
<path d="M126 200 c3 -14 14 -43 23 -65 l18 -40 22 59 c12 32 20 61 17 63 -2
2 -12 -20 -22 -49 l-17 -53 -14 35 c-8 19 -18 44 -23 55 -9 17 -9 16 -4 -5z"/>
<path d="M380 160 l0 -60 33 0 c40 0 67 25 67 62 0 33 -29 58 -68 58 l-32 0 0
-60z m78 38 c7 -7 12 -24 12 -38 0 -34 -17 -50 -52 -50 -27 0 -28 2 -28 50 0
48 1 50 28 50 15 0 33 -5 40 -12z"/>
<path d="M230 176 c-15 -20 -9 -56 12 -70 14 -8 21 -6 35 9 16 17 17 18 1 6
-19 -14 -48 -9 -48 9 0 5 14 10 30 10 31 0 39 17 18 38 -16 16 -33 15 -48 -2z
m48 -13 c2 -8 -6 -13 -22 -13 -25 0 -33 10 -19 24 10 10 36 3 41 -11z"/>
<path d="M314 171 c14 -23 14 -28 0 -50 -15 -25 -14 -26 3 -5 l18 21 18 -21
c18 -21 18 -21 3 5 -14 23 -14 27 0 50 15 24 15 24 -3 3 l-18 -21 -18 21 c-18
21 -18 21 -3 -3z"/>
<path d="M510 176 c-15 -19 -9 -56 12 -69 34 -22 66 41 36 71 -16 16 -33 15
-48 -2z m45 -31 c0 -23 -4 -30 -20 -30 -21 0 -31 25 -21 51 11 28 41 12 41
-21z"/>
<path d="M600 176 c-25 -31 13 -97 40 -70 8 8 4 10 -12 10 -19 -1 -23 4 -23
29 0 24 4 30 22 29 12 0 20 3 17 8 -8 13 -30 9 -44 -6z"/>
<path d="M674 175 c-8 -20 4 -35 27 -35 11 0 19 -7 19 -16 0 -12 -7 -15 -26
-11 -16 3 -22 1 -16 -5 16 -16 47 -5 47 17 0 13 -8 21 -22 23 -13 2 -23 10
-23 19 0 11 7 14 25 11 13 -3 22 -1 19 3 -9 14 -44 10 -50 -6z"/>
</g>
</svg>
