<?xml version="1.0" standalone="no"?>
<!DOCTYPE svg PUBLIC "-//W3C//DTD SVG 20010904//EN"
 "http://www.w3.org/TR/2001/REC-SVG-20010904/DTD/svg10.dtd">
<svg version="1.0" xmlns="http://www.w3.org/2000/svg"
 width="85.000000pt" height="28.000000pt" viewBox="0 0 85.000000 28.000000"
 preserveAspectRatio="xMidYMid meet">

<g transform="translate(0.000000,28.000000) scale(0.100000,-0.100000)"
fill="#000000" stroke="none">
<path d="M90 201 c0 -6 4 -13 10 -16 5 -3 14 -24 20 -45 14 -54 44 -55 60 -2
7 20 16 41 21 47 15 16 10 25 -16 25 -17 0 -24 -5 -23 -17 3 -36 -2 -54 -13
-47 -6 3 -9 19 -5 35 5 27 3 29 -24 29 -17 0 -30 -4 -30 -9z"/>
<path d="M395 200 c-3 -5 -1 -10 4 -10 6 0 11 -16 11 -35 0 -28 -4 -35 -20
-35 -13 0 -20 7 -20 20 0 11 5 20 10 20 6 0 10 5 10 10 0 17 -38 11 -43 -7 -4
-17 -5 -17 -6 0 -1 11 -9 17 -26 17 -29 0 -32 -8 -7 -26 16 -13 16 -15 0 -28
-24 -18 -22 -26 6 -26 15 0 26 7 29 18 4 16 5 16 6 0 1 -15 11 -18 64 -18 36
0 68 5 75 12 20 20 15 76 -7 88 -25 13 -78 13 -86 0z m70 -45 c0 -16 -6 -30
-12 -32 -9 -3 -13 7 -13 32 0 25 4 35 13 33 6 -3 12 -17 12 -33z"/>
<path d="M210 161 c-16 -31 4 -63 37 -59 15 2 28 9 31 16 3 9 -3 11 -22 6 -16
-4 -26 -2 -26 5 0 6 12 11 26 11 19 0 25 5 22 18 -5 26 -54 28 -68 3z m45 -1
c3 -5 -1 -10 -10 -10 -9 0 -13 5 -10 10 3 6 8 10 10 10 2 0 7 -4 10 -10z"/>
<path d="M520 160 c-24 -45 43 -86 70 -42 9 16 11 16 20 0 8 -12 25 -16 75
-17 35 0 67 4 70 8 3 5 2 23 -1 41 -6 26 -11 31 -33 28 -34 -4 -40 -35 -9 -47
31 -13 6 -14 -26 -1 -17 6 -26 6 -26 0 0 -6 -7 -10 -15 -10 -8 0 -15 9 -15 20
0 17 4 19 26 14 20 -5 25 -3 22 7 -7 22 -50 23 -66 2 -12 -17 -14 -17 -23 0
-14 23 -56 22 -69 -3z m50 -20 c0 -11 -7 -20 -15 -20 -8 0 -15 9 -15 20 0 11
7 20 15 20 8 0 15 -9 15 -20z m167 14 c-3 -3 -12 -4 -19 -1 -8 3 -5 6 6 6 11
1 17 -2 13 -5z"/>
</g>
</svg>
